<svg xmlns="http://www.w3.org/2000/svg" viewBox="-5.0 -9.919741270797061 99.34186175894502 31.312697175483287">
<rect x="-5.0" y="-9.919741270797061" width="100%" height="100%" fill="#f4f6f8"/>
<circle cx="2.4207" cy="1.9526" r=".35" fill="#e2ac00"/>
<circle cx="2.7782" cy="-2.5650" r=".35" fill="#1976d2"/>
<circle cx="4.8031" cy="0.8847" r=".35" fill="#e2ac00"/>
<circle cx="4.3578" cy="-3.7094" r=".35" fill="#1976d2"/>
<circle cx="6.4672" cy="-0.3109" r=".35" fill="#e2ac00"/>
<circle cx="6.8989" cy="-4.9197" r=".35" fill="#1976d2"/>
<circle cx="7.4436" cy="-0.9570" r=".35" fill="#e2ac00"/>
<circle cx="10.0485" cy="-4.2431" r=".35" fill="#1976d2"/>
<circle cx="8.0516" cy="-0.7772" r=".35" fill="#e2ac00"/>
<circle cx="11.9158" cy="-2.3966" r=".35" fill="#1976d2"/>
<circle cx="8.9327" cy="0.2683" r=".35" fill="#e2ac00"/>
<circle cx="13.0640" cy="-1.0046" r=".35" fill="#1976d2"/>
<circle cx="10.3553" cy="1.9386" r=".35" fill="#e2ac00"/>
<circle cx="14.1216" cy="-0.2261" r=".35" fill="#1976d2"/>
<circle cx="12.5400" cy="3.4479" r=".35" fill="#e2ac00"/>
<circle cx="15.8228" cy="0.0800" r=".35" fill="#1976d2"/>
<circle cx="14.7487" cy="3.9331" r=".35" fill="#e2ac00"/>
<circle cx="18.2049" cy="0.9760" r=".35" fill="#1976d2"/>
<circle cx="16.0974" cy="4.3757" r=".35" fill="#e2ac00"/>
<circle cx="20.0597" cy="2.6983" r=".35" fill="#1976d2"/>
<circle cx="17.1207" cy="5.4116" r=".35" fill="#e2ac00"/>
<circle cx="21.2476" cy="4.1690" r=".35" fill="#1976d2"/>
<circle cx="18.4618" cy="7.0394" r=".35" fill="#e2ac00"/>
<circle cx="21.9382" cy="4.8730" r=".35" fill="#1976d2"/>
<circle cx="20.9115" cy="8.7390" r=".35" fill="#e2ac00"/>
<circle cx="22.6244" cy="4.6674" r=".35" fill="#1976d2"/>
<circle cx="24.0713" cy="8.3965" r=".35" fill="#e2ac00"/>
<circle cx="23.8945" cy="3.7536" r=".35" fill="#1976d2"/>
<circle cx="26.1165" cy="7.0797" r=".35" fill="#e2ac00"/>
<circle cx="25.8487" cy="2.4889" r=".35" fill="#1976d2"/>
<circle cx="27.4921" cy="6.1357" r=".35" fill="#e2ac00"/>
<circle cx="28.4182" cy="1.8108" r=".35" fill="#1976d2"/>
<circle cx="28.7504" cy="5.7970" r=".35" fill="#e2ac00"/>
<circle cx="30.4870" cy="1.9888" r=".35" fill="#1976d2"/>
<circle cx="30.6619" cy="5.9850" r=".35" fill="#e2ac00"/>
<circle cx="31.8010" cy="1.7660" r=".35" fill="#1976d2"/>
<circle cx="33.2422" cy="5.4973" r=".35" fill="#e2ac00"/>
<circle cx="33.1153" cy="0.9111" r=".35" fill="#1976d2"/>
<circle cx="35.3209" cy="4.2480" r=".35" fill="#e2ac00"/>
<circle cx="34.9991" cy="-0.3789" r=".35" fill="#1976d2"/>
<circle cx="36.7075" cy="3.2379" r=".35" fill="#e2ac00"/>
<circle cx="38.0326" cy="-1.0648" r=".35" fill="#1976d2"/>
<circle cx="37.4546" cy="2.8932" r=".35" fill="#e2ac00"/>
<circle cx="40.7274" cy="0.4427" r=".35" fill="#1976d2"/>
<circle cx="38.0966" cy="3.4558" r=".35" fill="#e2ac00"/>
<circle cx="42.1820" cy="2.1548" r=".35" fill="#1976d2"/>
<circle cx="39.1981" cy="4.8188" r=".35" fill="#e2ac00"/>
<circle cx="43.2243" cy="3.2935" r=".35" fill="#1976d2"/>
<circle cx="40.9177" cy="6.5615" r=".35" fill="#e2ac00"/>
<circle cx="44.4613" cy="3.8237" r=".35" fill="#1976d2"/>
<circle cx="43.2938" cy="7.6495" r=".35" fill="#e2ac00"/>
<circle cx="46.5421" cy="4.2046" r=".35" fill="#1976d2"/>
<circle cx="45.1499" cy="7.9545" r=".35" fill="#e2ac00"/>
<circle cx="48.8289" cy="5.5647" r=".35" fill="#1976d2"/>
<circle cx="46.2609" cy="8.6315" r=".35" fill="#e2ac00"/>
<circle cx="50.3612" cy="7.2820" r=".35" fill="#1976d2"/>
<circle cx="47.3579" cy="9.9239" r=".35" fill="#e2ac00"/>
<circle cx="51.3306" cy="8.4595" r=".35" fill="#1976d2"/>
<circle cx="49.0373" cy="11.7369" r=".35" fill="#e2ac00"/>
<circle cx="51.9378" cy="8.7961" r=".35" fill="#1976d2"/>
<circle cx="52.0477" cy="12.7946" r=".35" fill="#e2ac00"/>
<circle cx="52.8104" cy="8.2638" r=".35" fill="#1976d2"/>
<circle cx="54.8007" cy="11.7335" r=".35" fill="#e2ac00"/>
<circle cx="54.3652" cy="7.1304" r=".35" fill="#1976d2"/>
<circle cx="56.4862" cy="10.5218" r=".35" fill="#e2ac00"/>
<circle cx="56.6323" cy="5.9638" r=".35" fill="#1976d2"/>
<circle cx="57.7329" cy="9.8094" r=".35" fill="#e2ac00"/>
<circle cx="59.1470" cy="5.7570" r=".35" fill="#1976d2"/>
<circle cx="59.1754" cy="9.7569" r=".35" fill="#e2ac00"/>
<circle cx="60.8336" cy="5.8839" r=".35" fill="#1976d2"/>
<circle cx="61.4704" cy="9.8329" r=".35" fill="#e2ac00"/>
<circle cx="62.0534" cy="5.3767" r=".35" fill="#1976d2"/>
<circle cx="63.9498" cy="8.8986" r=".35" fill="#e2ac00"/>
<circle cx="63.5426" cy="4.3075" r=".35" fill="#1976d2"/>
<circle cx="65.7256" cy="7.6593" r=".35" fill="#e2ac00"/>
<circle cx="65.8740" cy="3.0162" r=".35" fill="#1976d2"/>
<circle cx="66.8165" cy="6.9036" r=".35" fill="#e2ac00"/>
<circle cx="69.0881" cy="3.2799" r=".35" fill="#1976d2"/>
<circle cx="67.4429" cy="6.9259" r=".35" fill="#e2ac00"/>
<circle cx="71.1723" cy="5.1161" r=".35" fill="#1976d2"/>
<circle cx="68.2398" cy="7.8365" r=".35" fill="#e2ac00"/>
<circle cx="72.3847" cy="6.6049" r=".35" fill="#1976d2"/>
<circle cx="69.5633" cy="9.4403" r=".35" fill="#e2ac00"/>
<circle cx="73.4126" cy="7.4858" r=".35" fill="#1976d2"/>
<circle cx="71.6237" cy="11.0635" r=".35" fill="#e2ac00"/>
<circle cx="74.9638" cy="7.8273" r=".35" fill="#1976d2"/>
<circle cx="73.9312" cy="11.6917" r=".35" fill="#e2ac00"/>
<circle cx="77.3073" cy="8.5402" r=".35" fill="#1976d2"/>
<circle cx="75.4103" cy="12.0618" r=".35" fill="#e2ac00"/>
<circle cx="79.2996" cy="10.2066" r=".35" fill="#1976d2"/>
<circle cx="76.4316" cy="12.9948" r=".35" fill="#e2ac00"/>
<circle cx="80.5760" cy="11.7697" r=".35" fill="#1976d2"/>
<circle cx="77.6826" cy="14.5316" r=".35" fill="#e2ac00"/>
<circle cx="81.3334" cy="12.6112" r=".35" fill="#1976d2"/>
<circle cx="79.8863" cy="16.3402" r=".35" fill="#e2ac00"/>
<circle cx="81.9757" cy="12.5548" r=".35" fill="#1976d2"/>
<circle cx="83.1022" cy="16.3930" r=".35" fill="#e2ac00"/>
<circle cx="83.1269" cy="11.7448" r=".35" fill="#1976d2"/>
<circle cx="85.3321" cy="15.0820" r=".35" fill="#e2ac00"/>
<circle cx="84.9613" cy="10.4910" r=".35" fill="#1976d2"/>
<circle cx="86.7802" cy="14.0536" r=".35" fill="#e2ac00"/>
<circle cx="87.4070" cy="9.6479" r=".35" fill="#1976d2"/>
<circle cx="88.0797" cy="13.5909" r=".35" fill="#e2ac00"/>
<circle cx="89.3419" cy="9.7009" r=".35" fill="#1976d2"/>
<circle cx="89.1311" cy="13.6954" r=".35" fill="#e2ac00"/>
<circle cx="0.0000" cy="2.0000" r=".35" fill="#ff6500"/>
<circle cx="0.0000" cy="-2.0000" r=".35" fill="#ff6500"/>
<path d="M 0 0 L 4 0 L 3 -0.6 M 4 0 L 3 0.6" stroke="#111" stroke-width=".25" fill="none"/>
</svg>